<mxfile host="app.diagrams.net" modified="2024-05-30T00:51:37.186Z" agent="Mozilla/5.0 (Windows NT 10.0; Win64; x64) AppleWebKit/537.36 (KHTML, like Gecko) Chrome/125.0.0.0 Safari/537.36 Edg/125.0.0.0" etag="0BwgQMjs8L3EQIMayI2m" version="24.4.10" type="github">
  <diagram name="EXERCISE-1" id="WV_iTRpZf-6z-AVkFdXK">
    <mxGraphModel dx="1002" dy="582" grid="1" gridSize="10" guides="1" tooltips="1" connect="1" arrows="1" fold="1" page="1" pageScale="1" pageWidth="850" pageHeight="1100" math="0" shadow="0">
      <root>
        <mxCell id="0" />
        <mxCell id="1" parent="0" />
        <mxCell id="3VU-N1z-7XnI4TpB8yAt-1" value="EXERCISE 2 P2" style="text;html=1;align=center;verticalAlign=middle;resizable=0;points=[];autosize=1;strokeColor=none;fillColor=none;" vertex="1" parent="1">
          <mxGeometry x="315" width="110" height="30" as="geometry" />
        </mxCell>
        <mxCell id="3VU-N1z-7XnI4TpB8yAt-2" value="" style="edgeStyle=orthogonalEdgeStyle;rounded=0;orthogonalLoop=1;jettySize=auto;html=1;" edge="1" parent="1" source="3VU-N1z-7XnI4TpB8yAt-3" target="3VU-N1z-7XnI4TpB8yAt-5">
          <mxGeometry relative="1" as="geometry" />
        </mxCell>
        <mxCell id="3VU-N1z-7XnI4TpB8yAt-3" value="INICIO" style="ellipse;whiteSpace=wrap;html=1;" vertex="1" parent="1">
          <mxGeometry x="330" y="30" width="80" height="80" as="geometry" />
        </mxCell>
        <mxCell id="3VU-N1z-7XnI4TpB8yAt-4" value="" style="edgeStyle=orthogonalEdgeStyle;rounded=0;orthogonalLoop=1;jettySize=auto;html=1;" edge="1" parent="1" source="3VU-N1z-7XnI4TpB8yAt-5" target="3VU-N1z-7XnI4TpB8yAt-7">
          <mxGeometry relative="1" as="geometry" />
        </mxCell>
        <mxCell id="3VU-N1z-7XnI4TpB8yAt-5" value="INPUT&amp;nbsp;&lt;div&gt;doc&lt;/div&gt;" style="shape=parallelogram;perimeter=parallelogramPerimeter;whiteSpace=wrap;html=1;fixedSize=1;" vertex="1" parent="1">
          <mxGeometry x="310" y="140" width="120" height="60" as="geometry" />
        </mxCell>
        <mxCell id="3VU-N1z-7XnI4TpB8yAt-6" value="" style="edgeStyle=orthogonalEdgeStyle;rounded=0;orthogonalLoop=1;jettySize=auto;html=1;" edge="1" parent="1" source="3VU-N1z-7XnI4TpB8yAt-7" target="3VU-N1z-7XnI4TpB8yAt-10">
          <mxGeometry relative="1" as="geometry" />
        </mxCell>
        <mxCell id="3VU-N1z-7XnI4TpB8yAt-7" value="i=0&lt;div&gt;doc_word&lt;/div&gt;" style="whiteSpace=wrap;html=1;" vertex="1" parent="1">
          <mxGeometry x="310" y="230" width="120" height="40" as="geometry" />
        </mxCell>
        <mxCell id="3VU-N1z-7XnI4TpB8yAt-8" value="" style="edgeStyle=orthogonalEdgeStyle;rounded=0;orthogonalLoop=1;jettySize=auto;html=1;" edge="1" parent="1" source="3VU-N1z-7XnI4TpB8yAt-10" target="3VU-N1z-7XnI4TpB8yAt-11">
          <mxGeometry relative="1" as="geometry" />
        </mxCell>
        <mxCell id="3VU-N1z-7XnI4TpB8yAt-9" value="" style="edgeStyle=orthogonalEdgeStyle;rounded=0;orthogonalLoop=1;jettySize=auto;html=1;" edge="1" parent="1" source="3VU-N1z-7XnI4TpB8yAt-10" target="3VU-N1z-7XnI4TpB8yAt-16">
          <mxGeometry relative="1" as="geometry" />
        </mxCell>
        <mxCell id="3VU-N1z-7XnI4TpB8yAt-10" value="i&amp;lt;=doc.size()" style="rhombus;whiteSpace=wrap;html=1;fillColor=#fff2cc;strokeColor=#d6b656;" vertex="1" parent="1">
          <mxGeometry x="320" y="310" width="100" height="80" as="geometry" />
        </mxCell>
        <mxCell id="3VU-N1z-7XnI4TpB8yAt-11" value="FIN" style="ellipse;whiteSpace=wrap;html=1;" vertex="1" parent="1">
          <mxGeometry x="540" y="310" width="120" height="80" as="geometry" />
        </mxCell>
        <mxCell id="3VU-N1z-7XnI4TpB8yAt-12" value="NO" style="text;html=1;align=center;verticalAlign=middle;resizable=0;points=[];autosize=1;strokeColor=none;fillColor=none;" vertex="1" parent="1">
          <mxGeometry x="410" y="310" width="40" height="30" as="geometry" />
        </mxCell>
        <mxCell id="3VU-N1z-7XnI4TpB8yAt-13" value="SI" style="text;html=1;align=center;verticalAlign=middle;resizable=0;points=[];autosize=1;strokeColor=none;fillColor=none;" vertex="1" parent="1">
          <mxGeometry x="380" y="390" width="30" height="30" as="geometry" />
        </mxCell>
        <mxCell id="3VU-N1z-7XnI4TpB8yAt-14" value="" style="edgeStyle=orthogonalEdgeStyle;rounded=0;orthogonalLoop=1;jettySize=auto;html=1;" edge="1" parent="1" source="3VU-N1z-7XnI4TpB8yAt-16" target="3VU-N1z-7XnI4TpB8yAt-19">
          <mxGeometry relative="1" as="geometry" />
        </mxCell>
        <mxCell id="3VU-N1z-7XnI4TpB8yAt-15" value="" style="edgeStyle=orthogonalEdgeStyle;rounded=0;orthogonalLoop=1;jettySize=auto;html=1;" edge="1" parent="1" source="3VU-N1z-7XnI4TpB8yAt-16" target="3VU-N1z-7XnI4TpB8yAt-26">
          <mxGeometry relative="1" as="geometry" />
        </mxCell>
        <mxCell id="3VU-N1z-7XnI4TpB8yAt-16" value="doc_char==&#39; &#39;&amp;nbsp;&lt;div&gt;or i==doc_size1 and&amp;nbsp;&lt;/div&gt;&lt;div&gt;doc != &quot;&quot;&lt;/div&gt;" style="rhombus;whiteSpace=wrap;html=1;fillColor=#fff2cc;strokeColor=#d6b656;" vertex="1" parent="1">
          <mxGeometry x="295" y="440" width="150" height="90" as="geometry" />
        </mxCell>
        <mxCell id="3VU-N1z-7XnI4TpB8yAt-17" value="SI" style="text;html=1;align=center;verticalAlign=middle;resizable=0;points=[];autosize=1;strokeColor=none;fillColor=none;" vertex="1" parent="1">
          <mxGeometry x="280" y="490" width="30" height="30" as="geometry" />
        </mxCell>
        <mxCell id="3VU-N1z-7XnI4TpB8yAt-18" value="" style="edgeStyle=orthogonalEdgeStyle;rounded=0;orthogonalLoop=1;jettySize=auto;html=1;" edge="1" parent="1" source="3VU-N1z-7XnI4TpB8yAt-19" target="3VU-N1z-7XnI4TpB8yAt-21">
          <mxGeometry relative="1" as="geometry" />
        </mxCell>
        <mxCell id="3VU-N1z-7XnI4TpB8yAt-19" value="OUTPUT&lt;div&gt;&#39;[&#39; , doc_word , &#39;]&#39; , endl;&lt;br&gt;&lt;/div&gt;" style="shape=parallelogram;perimeter=parallelogramPerimeter;whiteSpace=wrap;html=1;fixedSize=1;" vertex="1" parent="1">
          <mxGeometry x="90" y="480" width="160" height="60" as="geometry" />
        </mxCell>
        <mxCell id="3VU-N1z-7XnI4TpB8yAt-20" value="" style="edgeStyle=orthogonalEdgeStyle;rounded=0;orthogonalLoop=1;jettySize=auto;html=1;" edge="1" parent="1" source="3VU-N1z-7XnI4TpB8yAt-21" target="3VU-N1z-7XnI4TpB8yAt-23">
          <mxGeometry relative="1" as="geometry" />
        </mxCell>
        <mxCell id="3VU-N1z-7XnI4TpB8yAt-21" value="doc_word=&quot;&quot;" style="whiteSpace=wrap;html=1;" vertex="1" parent="1">
          <mxGeometry x="110" y="395" width="120" height="60" as="geometry" />
        </mxCell>
        <mxCell id="3VU-N1z-7XnI4TpB8yAt-22" style="edgeStyle=orthogonalEdgeStyle;rounded=0;orthogonalLoop=1;jettySize=auto;html=1;entryX=0;entryY=0.5;entryDx=0;entryDy=0;" edge="1" parent="1" source="3VU-N1z-7XnI4TpB8yAt-23" target="3VU-N1z-7XnI4TpB8yAt-10">
          <mxGeometry relative="1" as="geometry" />
        </mxCell>
        <mxCell id="3VU-N1z-7XnI4TpB8yAt-23" value="++i" style="whiteSpace=wrap;html=1;" vertex="1" parent="1">
          <mxGeometry x="110" y="330" width="120" height="40" as="geometry" />
        </mxCell>
        <mxCell id="3VU-N1z-7XnI4TpB8yAt-24" value="NO" style="text;html=1;align=center;verticalAlign=middle;resizable=0;points=[];autosize=1;strokeColor=none;fillColor=none;" vertex="1" parent="1">
          <mxGeometry x="384" y="520" width="40" height="30" as="geometry" />
        </mxCell>
        <mxCell id="3VU-N1z-7XnI4TpB8yAt-25" style="edgeStyle=orthogonalEdgeStyle;rounded=0;orthogonalLoop=1;jettySize=auto;html=1;entryX=0;entryY=0.5;entryDx=0;entryDy=0;" edge="1" parent="1" source="3VU-N1z-7XnI4TpB8yAt-26" target="3VU-N1z-7XnI4TpB8yAt-23">
          <mxGeometry relative="1" as="geometry">
            <Array as="points">
              <mxPoint x="50" y="605" />
              <mxPoint x="50" y="350" />
            </Array>
          </mxGeometry>
        </mxCell>
        <mxCell id="3VU-N1z-7XnI4TpB8yAt-26" value="doc_word = doc_word + doc[i]" style="whiteSpace=wrap;html=1;" vertex="1" parent="1">
          <mxGeometry x="280" y="575" width="180" height="60" as="geometry" />
        </mxCell>
      </root>
    </mxGraphModel>
  </diagram>
</mxfile>
